<svg width="12" height="12" viewBox="0 0 12 12" fill="none" xmlns="http://www.w3.org/2000/svg">
<path d="M9.41309 0.400391C10.3253 0.400391 11.0654 1.13956 11.0654 2.05176V9.41309C11.0654 10.3253 10.3253 11.0654 9.41309 11.0654H2.05176C1.13956 11.0654 0.400391 10.3253 0.400391 9.41309V2.05176C0.400391 1.13956 1.13956 0.400391 2.05176 0.400391H9.41309ZM8.09863 5.97852C7.979 5.97861 7.86391 6.02674 7.7793 6.11133L4.02441 9.86523H9.41309C9.66254 9.86523 9.86523 9.66254 9.86523 9.41309V7.55859L8.41797 6.11133C8.33334 6.02692 8.21817 5.97856 8.09863 5.97852ZM2.05176 1.59961C1.8023 1.59961 1.59961 1.8023 1.59961 2.05176V9.41309C1.59961 9.66254 1.8023 9.86523 2.05176 9.86523H2.32812L6.93066 5.2627C7.24031 4.95314 7.6608 4.77939 8.09863 4.7793C8.53637 4.77934 8.95694 4.95332 9.2666 5.2627L9.86523 5.86133V2.05176C9.86523 1.8023 9.66254 1.59961 9.41309 1.59961H2.05176ZM4.15527 2.50391C5.06738 2.50401 5.80664 3.24314 5.80664 4.15527C5.80653 5.06731 5.06731 5.80653 4.15527 5.80664C3.24314 5.80664 2.50401 5.06738 2.50391 4.15527C2.50391 3.24308 3.24308 2.50391 4.15527 2.50391ZM4.15527 3.70312C3.90582 3.70312 3.70312 3.90582 3.70312 4.15527C3.70323 4.40464 3.90588 4.60645 4.15527 4.60645C4.40457 4.60634 4.60634 4.40457 4.60645 4.15527C4.60645 3.90588 4.40464 3.70323 4.15527 3.70312Z" fill="#71717b"/>
</svg>
