<svg width="12" height="12" viewBox="0 0 12 12" fill="none" xmlns="http://www.w3.org/2000/svg">
<path d="M2.11111 3.22222V8.77778M9.88889 3.22222V8.77778M3.22222 2.11111H8.77778M3.22222 9.88889H8.77778M1 1.55556C1 1.40821 1.05853 1.26691 1.16272 1.16272C1.26691 1.05853 1.40821 1 1.55556 1H2.66667C2.81401 1 2.95532 1.05853 3.0595 1.16272C3.16369 1.26691 3.22222 1.40821 3.22222 1.55556V2.66667C3.22222 2.81401 3.16369 2.95532 3.0595 3.0595C2.95532 3.16369 2.81401 3.22222 2.66667 3.22222H1.55556C1.40821 3.22222 1.26691 3.16369 1.16272 3.0595C1.05853 2.95532 1 2.81401 1 2.66667V1.55556ZM8.77778 1.55556C8.77778 1.40821 8.83631 1.26691 8.9405 1.16272C9.04468 1.05853 9.18599 1 9.33333 1H10.4444C10.5918 1 10.7331 1.05853 10.8373 1.16272C10.9415 1.26691 11 1.40821 11 1.55556V2.66667C11 2.81401 10.9415 2.95532 10.8373 3.0595C10.7331 3.16369 10.5918 3.22222 10.4444 3.22222H9.33333C9.18599 3.22222 9.04468 3.16369 8.9405 3.0595C8.83631 2.95532 8.77778 2.81401 8.77778 2.66667V1.55556ZM8.77778 9.33333C8.77778 9.18599 8.83631 9.04468 8.9405 8.9405C9.04468 8.83631 9.18599 8.77778 9.33333 8.77778H10.4444C10.5918 8.77778 10.7331 8.83631 10.8373 8.9405C10.9415 9.04468 11 9.18599 11 9.33333V10.4444C11 10.5918 10.9415 10.7331 10.8373 10.8373C10.7331 10.9415 10.5918 11 10.4444 11H9.33333C9.18599 11 9.04468 10.9415 8.9405 10.8373C8.83631 10.7331 8.77778 10.5918 8.77778 10.4444V9.33333ZM1 9.33333C1 9.18599 1.05853 9.04468 1.16272 8.9405C1.26691 8.83631 1.40821 8.77778 1.55556 8.77778H2.66667C2.81401 8.77778 2.95532 8.83631 3.0595 8.9405C3.16369 9.04468 3.22222 9.18599 3.22222 9.33333V10.4444C3.22222 10.5918 3.16369 10.7331 3.0595 10.8373C2.95532 10.9415 2.81401 11 2.66667 11H1.55556C1.40821 11 1.26691 10.9415 1.16272 10.8373C1.05853 10.7331 1 10.5918 1 10.4444V9.33333Z" stroke="#4B5563" stroke-width="1.4" stroke-linecap="round" stroke-linejoin="round"/>
</svg>
