<svg width="12" height="12" viewBox="0 0 12 12" fill="none" xmlns="http://www.w3.org/2000/svg">
<g clip-path="url(#clip0_59_34)">
<path d="M7.06348 2C8.03548 2.00035 8.82422 2.78866 8.82422 3.76074V3.86621L10.5537 2.85742C10.7003 2.77201 10.8675 2.72617 11.0371 2.72559L11.1641 2.7334C11.2474 2.74419 11.3295 2.76592 11.4072 2.79785L11.5215 2.85449L11.627 2.92383C11.6941 2.97518 11.7541 3.03552 11.8057 3.10254L11.876 3.20801L11.9316 3.32129C11.9801 3.43811 12.0059 3.56412 12.0059 3.69141V8.03711L11.9971 8.16699C11.9795 8.29581 11.9354 8.42088 11.8682 8.5332C11.7785 8.68266 11.6497 8.80535 11.4961 8.8877C11.3423 8.97003 11.1684 9.00924 10.9941 9.00098C10.8199 8.99261 10.6511 8.93648 10.5059 8.83984H10.5049L8.82422 7.71875V8.00293C8.82389 8.97473 8.03527 9.76332 7.06348 9.76367H1.76074C0.788645 9.76367 0.000332166 8.97495 0 8.00293V3.76074C0 2.78844 0.78844 2 1.76074 2H7.06348ZM1.76074 3.40039C1.56164 3.40039 1.40039 3.56164 1.40039 3.76074V8.00293C1.40072 8.20175 1.56184 8.36328 1.76074 8.36328H7.06348C7.26208 8.36293 7.4235 8.20153 7.42383 8.00293V3.76074C7.42383 3.56186 7.26228 3.40074 7.06348 3.40039H1.76074ZM8.82422 5.4873V6.03613L10.6055 7.22363V4.44727L8.82422 5.4873Z" fill="#4B5563"/>
</g>
<defs>
<clipPath id="clip0_59_34">
<rect width="12" height="12" fill="white"/>
</clipPath>
</defs>
</svg>
